# xmcd CD database file
#
# Track frame offsets:
#	150
#	24293
#	58012
#	89975
#
# Disc length: 1385 seconds
#
# Revision: 0
# Processed by: cddbd v1.5.2PL0 Copyright (c) Steve Scherf et al.
# Submitted via: CDex 1.83
#
DISCID=2f056704
DTITLE=Newport 1957 - Le festival de tous les jazz
DYEAR=2017
DGENRE=Jazz
TTITLE0=Louis Armstrong - Mahoganny Hall Stomp
TTITLE1=Gigi Gryce - Batland
TTITLE2=Cecil Taylor - Johnny Come Lately
TTITLE3=Count Basie - Lester Leaps In
EXTD=YEAR: 2017
EXTT0=
EXTT1=
EXTT2=
EXTT3=
PLAYORDER=
